<svg width="14" height="11" viewBox="0 0 14 11" fill="none" xmlns="http://www.w3.org/2000/svg">
<path d="M11.3671 1.50514C11.3671 0.677315 10.7653 0 10.0298 0H8.02386V1.50514H10.0298V3.49946L7.70291 6.77315H5.34928V3.01029H2.6747C1.197 3.01029 0.00012207 4.35739 0.00012207 6.02058V8.27829H1.33741C1.33741 9.52756 2.2334 10.536 3.34335 10.536C4.4533 10.536 5.34928 9.52756 5.34928 8.27829H8.34481L11.3671 4.02626V1.50514ZM3.34335 9.03087C2.97559 9.03087 2.6747 8.69221 2.6747 8.27829H4.01199C4.01199 8.69221 3.7111 9.03087 3.34335 9.03087Z" fill="#333333"/>
<path d="M5.34934 0.752441H2.0061V2.25757H5.34934V0.752441Z" fill="#333333"/>
<path d="M11.3673 6.02051C10.2573 6.02051 9.36133 7.02895 9.36133 8.27821C9.36133 9.52748 10.2573 10.5359 11.3673 10.5359C12.4772 10.5359 13.3732 9.52748 13.3732 8.27821C13.3732 7.02895 12.4772 6.02051 11.3673 6.02051ZM11.3673 9.03078C10.9995 9.03078 10.6986 8.69213 10.6986 8.27821C10.6986 7.8643 10.9995 7.52564 11.3673 7.52564C11.735 7.52564 12.0359 7.8643 12.0359 8.27821C12.0359 8.69213 11.735 9.03078 11.3673 9.03078Z" fill="#333333"/>
</svg>
